<svg width="100" height="100" viewBox="0 0 100 100" fill="none" xmlns="http://www.w3.org/2000/svg">
<path fill-rule="evenodd" clip-rule="evenodd" d="M25.0007 8.33325C15.7959 8.33325 8.33398 15.7952 8.33398 24.9999V74.9999C8.33398 84.2047 15.7959 91.6666 25.0007 91.6666H75.0007C84.2054 91.6666 91.6673 84.2047 91.6673 74.9999V24.9999C91.6673 15.7952 84.2054 8.33325 75.0007 8.33325H25.0007ZM53.1257 29.1666C53.1257 27.4407 51.7265 26.0416 50.0007 26.0416C48.2748 26.0416 46.8757 27.4407 46.8757 29.1666V49.9999C46.8757 51.345 47.7364 52.5392 49.0124 52.9646L61.5124 57.1312C63.1498 57.677 64.9195 56.7921 65.4653 55.1548C66.0111 53.5175 65.1262 51.7477 63.4889 51.202L53.1257 47.7476V29.1666Z" fill="#28303F"/>
</svg>
