<svg width="23" height="23" viewBox="0 0 23 23" fill="none" xmlns="http://www.w3.org/2000/svg">
<path d="M20.6648 11.4046C20.6619 13.6695 19.8309 15.8552 18.3283 17.5499C16.8258 19.2446 14.7554 20.3315 12.5072 20.6056C12.4571 20.6113 12.4064 20.6063 12.3584 20.591C12.3105 20.5756 12.2663 20.5502 12.2288 20.5166C12.1913 20.4829 12.1614 20.4416 12.1411 20.3956C12.1207 20.3495 12.1103 20.2996 12.1107 20.2492V13.5431H14.2492C14.3469 13.5433 14.4436 13.5235 14.5333 13.4847C14.6231 13.446 14.7039 13.3892 14.7707 13.3179C14.8376 13.2467 14.889 13.1624 14.922 13.0704C14.9549 12.9784 14.9685 12.8806 14.962 12.7831C14.9463 12.5998 14.8617 12.4292 14.7253 12.3057C14.589 12.1822 14.4109 12.115 14.2269 12.1174H12.1107V9.9789C12.1107 9.60079 12.2609 9.23816 12.5282 8.97079C12.7956 8.70342 13.1582 8.55321 13.5363 8.55321H14.962C15.0598 8.55343 15.1565 8.53355 15.2462 8.49481C15.3359 8.45607 15.4167 8.39929 15.4836 8.32802C15.5504 8.25674 15.6019 8.17247 15.6348 8.08046C15.6677 7.98845 15.6814 7.89065 15.6749 7.79314C15.6591 7.60953 15.5743 7.43872 15.4375 7.31519C15.3008 7.19166 15.1222 7.12459 14.938 7.12752H13.5363C12.7801 7.12752 12.0549 7.42794 11.5201 7.96267C10.9854 8.49741 10.685 9.22267 10.685 9.9789V12.1174H8.54643C8.4487 12.1172 8.35198 12.1371 8.26227 12.1758C8.17255 12.2146 8.09176 12.2714 8.02491 12.3426C7.95806 12.4139 7.90658 12.4982 7.87366 12.5902C7.84075 12.6822 7.82711 12.78 7.83358 12.8775C7.84935 13.0611 7.93417 13.2319 8.07093 13.3555C8.20769 13.479 8.38622 13.5461 8.57049 13.5431H10.685V20.251C10.6853 20.3013 10.6749 20.3511 10.6546 20.3971C10.6343 20.4431 10.6045 20.4843 10.5671 20.518C10.5297 20.5516 10.4857 20.577 10.4378 20.5924C10.3899 20.6079 10.3393 20.613 10.2893 20.6074C7.98092 20.3263 5.86217 19.1888 4.35247 17.42C2.84276 15.6512 2.05212 13.3801 2.13706 11.0562C2.31527 6.24449 6.21275 2.33275 11.028 2.14562C12.2747 2.09733 13.5183 2.30098 14.6844 2.74438C15.8506 3.18779 16.9153 3.86183 17.815 4.72621C18.7146 5.59059 19.4307 6.62754 19.9204 7.77503C20.41 8.92253 20.6632 10.157 20.6648 11.4046Z" fill="black"/>
</svg>
