<svg width="180" height="180" viewBox="0 0 180 180" fill="none" xmlns="http://www.w3.org/2000/svg">
<path d="M154.91 49.2188H142.031L156.178 42.3253C156.655 42.0929 157.057 41.7304 157.336 41.2795C157.616 40.8286 157.762 40.3078 157.759 39.7772C157.621 19.8085 131.625 6.53627 130.52 5.97939C129.972 5.70504 129.351 5.61675 128.749 5.72791C128.147 5.83908 127.597 6.14363 127.184 6.59533L104.746 31.0922C104.513 30.6477 104.163 30.2748 103.735 30.0132C103.306 29.7517 102.815 29.6114 102.313 29.6072H77.7234C77.2208 29.6117 76.7289 29.7525 76.3 30.0145C75.8711 30.2765 75.5213 30.6499 75.2878 31.095L52.8075 6.59533C52.3941 6.14472 51.8452 5.8411 51.2438 5.73047C50.6424 5.61983 50.0213 5.70821 49.4747 5.9822C48.3693 6.5447 22.4128 19.8085 22.2778 39.78C22.2741 40.3106 22.4205 40.8314 22.7002 41.2823C22.9799 41.7332 23.3814 42.0958 23.8584 42.3281L38.0025 49.2188H25.0903C20.2782 49.2247 15.6649 51.1392 12.2625 54.5421C8.86014 57.945 6.94643 62.5586 6.94122 67.3706V78.8091C6.94122 79.555 7.23754 80.2704 7.76499 80.7978C8.29243 81.3253 9.0078 81.6216 9.75372 81.6216H14.8162V171.503C14.8162 172.249 15.1125 172.965 15.64 173.492C16.1674 174.02 16.8828 174.316 17.6287 174.316H162.397C163.142 174.316 163.858 174.02 164.385 173.492C164.913 172.965 165.209 172.249 165.209 171.503V81.6244H170.246C170.992 81.6244 171.708 81.3281 172.235 80.8006C172.762 80.2732 173.059 79.5578 173.059 78.8119V67.3735C173.054 62.5609 171.141 57.9466 167.738 54.5431C164.336 51.1395 159.722 49.2247 154.91 49.2188ZM129.845 12.0263C135.236 15.1425 150.657 25.1381 152.041 38.0897L129.201 49.2188H105.131V39.0066L129.845 12.0263ZM99.5062 35.235V49.2188H80.5359V35.235H99.5062ZM28.0012 38.0897C29.3737 25.1522 44.775 15.1453 50.1581 12.0263L74.9081 39.0066V49.2188H50.8387L28.0012 38.0897ZM20.43 81.6244H74.8968V168.691H20.43V81.6244ZM99.495 81.6244V168.691H80.5218V81.6244H99.495ZM159.584 168.691H105.12V81.6244H159.584V168.691ZM167.434 75.9994H12.5662V67.3735C12.5692 64.0523 13.8895 60.8679 16.2374 58.5189C18.5853 56.1699 21.7691 54.8482 25.0903 54.8438H154.91C158.23 54.8482 161.414 56.1695 163.762 58.5179C166.109 60.8663 167.43 64.0499 167.434 67.3706V75.9994Z" fill="#ED1B24"/>
</svg>
