<svg width="24" height="23" viewBox="0 0 24 23" fill="none" xmlns="http://www.w3.org/2000/svg">
<path d="M16.1534 2.13855H7.59929C6.27632 2.13997 5.00794 2.66614 4.07245 3.60163C3.13697 4.53711 2.61079 5.80549 2.60938 7.12847V15.6826C2.61079 17.0056 3.13697 18.274 4.07245 19.2095C5.00794 20.1449 6.27632 20.6711 7.59929 20.6725H16.1534C17.4764 20.6711 18.7448 20.1449 19.6803 19.2095C20.6158 18.274 21.1419 17.0056 21.1434 15.6826V7.12847C21.1419 5.80549 20.6158 4.53711 19.6803 3.60163C18.7448 2.66614 17.4764 2.13997 16.1534 2.13855ZM11.8764 15.6826C11.0304 15.6826 10.2035 15.4318 9.50015 14.9618C8.79679 14.4918 8.24859 13.8238 7.92487 13.0423C7.60114 12.2608 7.51644 11.4008 7.68148 10.5711C7.84651 9.74145 8.25386 8.97935 8.85202 8.38119C9.45018 7.78303 10.2123 7.37568 11.0419 7.21065C11.8716 7.04562 12.7316 7.13032 13.5131 7.45404C14.2947 7.77776 14.9626 8.32596 15.4326 9.02933C15.9026 9.73269 16.1534 10.5596 16.1534 11.4055C16.1523 12.5395 15.7013 13.6267 14.8994 14.4286C14.0976 15.2304 13.0104 15.6814 11.8764 15.6826ZM17.2227 7.12847C17.0112 7.12847 16.8045 7.06576 16.6287 6.94826C16.4528 6.83077 16.3158 6.66377 16.2348 6.46839C16.1539 6.27301 16.1327 6.05801 16.174 5.8506C16.2152 5.64318 16.3171 5.45265 16.4666 5.30311C16.6162 5.15357 16.8067 5.05173 17.0141 5.01048C17.2215 4.96922 17.4365 4.99039 17.6319 5.07132C17.8273 5.15225 17.9943 5.28931 18.1118 5.46515C18.2293 5.64099 18.292 5.84772 18.292 6.0592C18.292 6.34279 18.1793 6.61476 17.9788 6.81529C17.7783 7.01581 17.5063 7.12847 17.2227 7.12847ZM14.7277 11.4055C14.7277 11.9695 14.5605 12.5208 14.2472 12.9897C13.9339 13.4586 13.4886 13.8241 12.9675 14.0399C12.4465 14.2557 11.8732 14.3122 11.3201 14.2021C10.767 14.0921 10.2589 13.8205 9.86013 13.4218C9.46136 13.023 9.18979 12.5149 9.07977 11.9618C8.96975 11.4087 9.02622 10.8354 9.24203 10.3144C9.45785 9.79334 9.82332 9.34802 10.2922 9.0347C10.7611 8.72139 11.3124 8.55416 11.8764 8.55416C12.6326 8.55416 13.3579 8.85457 13.8926 9.38931C14.4273 9.92405 14.7277 10.6493 14.7277 11.4055Z" fill="black"/>
</svg>
