<svg width="24" height="23" viewBox="0 0 24 23" fill="none" xmlns="http://www.w3.org/2000/svg">
<path d="M20.1075 19.5898C20.0461 19.7016 19.9559 19.7949 19.8462 19.8599C19.7365 19.925 19.6113 19.9594 19.4838 19.9596H15.2067C15.0867 19.9596 14.9687 19.9293 14.8636 19.8715C14.7584 19.8137 14.6696 19.7303 14.6052 19.629L10.9973 13.9592L5.75437 19.7262C5.62656 19.8634 5.44978 19.9448 5.26237 19.9527C5.07495 19.9605 4.89201 19.8941 4.75319 19.768C4.61437 19.6418 4.53087 19.466 4.5208 19.2787C4.51072 19.0914 4.57488 18.9077 4.69936 18.7674L10.2034 12.7082L4.6254 3.94732C4.5567 3.83954 4.51824 3.71527 4.51405 3.58753C4.50987 3.45978 4.5401 3.33326 4.60159 3.22122C4.66308 3.10917 4.75356 3.01571 4.86357 2.95064C4.97357 2.88556 5.09905 2.85126 5.22686 2.85132H9.50394C9.62391 2.85136 9.74193 2.88167 9.84707 2.93946C9.95221 2.99725 10.0411 3.08064 10.1054 3.1819L13.7133 8.85169L18.9563 3.08478C19.0841 2.94748 19.2609 2.8661 19.4483 2.85826C19.6357 2.85043 19.8186 2.91679 19.9574 3.04295C20.0963 3.1691 20.1798 3.34489 20.1898 3.53219C20.1999 3.7195 20.1358 3.90323 20.0113 4.04355L14.5072 10.0983L20.0852 18.8645C20.1535 18.9723 20.1917 19.0965 20.1956 19.2241C20.1995 19.3517 20.1691 19.478 20.1075 19.5898Z" fill="black"/>
</svg>
