<svg width="100" height="100" viewBox="0 0 100 100" fill="none" xmlns="http://www.w3.org/2000/svg">
<path fill-rule="evenodd" clip-rule="evenodd" d="M75 38.4259C75 52.7444 59.375 70.8333 50 70.8333C40.625 70.8333 25 52.7444 25 38.4259C25 24.1074 36.1929 12.5 50 12.5C63.8071 12.5 75 24.1074 75 38.4259ZM58.3333 37.5C58.3333 42.1024 54.6024 45.8333 50 45.8333C45.3976 45.8333 41.6667 42.1024 41.6667 37.5C41.6667 32.8976 45.3976 29.1667 50 29.1667C54.6024 29.1667 58.3333 32.8976 58.3333 37.5ZM24.3064 66.6667H29.8767C36.4062 74.0266 44.1244 79.1667 50.0009 79.1667C55.8773 79.1667 63.5955 74.0266 70.125 66.6667H75.6953C79.0595 66.6667 82.0937 68.6895 83.3876 71.7949L86.8598 80.1282C89.1469 85.6173 85.114 91.6667 79.1675 91.6667H20.8342C14.8877 91.6667 10.8548 85.6173 13.1419 80.1282L16.6141 71.7949C17.908 68.6895 20.9422 66.6667 24.3064 66.6667Z" fill="#28303F"/>
</svg>
