<svg width="100" height="100" viewBox="0 0 100 100" fill="none" xmlns="http://www.w3.org/2000/svg">
<path fill-rule="evenodd" clip-rule="evenodd" d="M35.2336 16.4835C36.1746 17.4704 37.1982 18.5389 38.3489 19.6896C40.1037 21.4445 42.3124 24.5002 43.222 28.1388C44.1778 31.9621 43.6724 36.4633 39.8221 40.3136C38.6079 41.5278 38.1922 42.4027 38.0631 42.9886C37.9456 43.5219 37.99 44.1503 38.4186 45.0688C38.8757 46.0482 39.7048 47.212 40.9934 48.6754C42.2726 50.128 43.8529 51.7101 45.7146 53.5718C47.5764 55.4336 49.1585 57.0138 50.6111 58.293C52.0745 59.5817 53.2383 60.4108 54.2177 60.8678C55.1362 61.2965 55.7646 61.3408 56.2979 61.2233C56.8838 61.0942 57.7587 60.6786 58.9729 59.4644C62.8232 55.6141 67.3244 55.1086 71.1476 56.0644C74.7862 56.9741 77.842 59.1827 79.5968 60.9375C80.7476 62.0883 81.8161 63.1119 82.8029 64.0528C82.9069 64.1519 83.0102 64.2504 83.1129 64.3482C83.9738 65.1686 84.7872 65.9437 85.5078 66.6644C87.0476 68.2041 88.558 69.8631 89.3365 71.7538C90.2422 73.9533 90.0491 76.1336 88.9658 78.3002C87.9887 80.2544 86.258 82.266 84.0162 84.5078C76.3226 92.2014 59.2226 90.6501 33.9295 65.357C8.63635 40.0638 7.08507 22.9638 14.7787 15.2702C17.0204 13.0285 19.032 11.2978 20.9862 10.3207C23.1528 9.23737 25.3332 9.04423 27.5327 9.94992C29.4234 10.7284 31.0823 12.2389 32.6221 13.7787C33.3428 14.4994 34.118 15.3128 34.9384 16.1738C35.0362 16.2764 35.1346 16.3797 35.2336 16.4835Z" fill="#2A343D"/>
</svg>
