<svg width="180" height="180" viewBox="0 0 180 180" fill="none" xmlns="http://www.w3.org/2000/svg">
<g clip-path="url(#clip0_113_94)">
<path d="M154.541 139.83C151.491 139.832 148.509 138.93 145.971 137.237C143.434 135.544 141.456 133.136 140.287 130.319C139.118 127.501 138.811 124.401 139.405 121.409C139.999 118.417 141.466 115.668 143.622 113.51C145.779 111.353 148.526 109.883 151.518 109.287C154.509 108.691 157.61 108.996 160.428 110.163C163.247 111.329 165.656 113.306 167.35 115.842C169.045 118.378 169.95 121.36 169.95 124.41C169.948 128.497 168.324 132.416 165.435 135.307C162.546 138.198 158.628 139.825 154.541 139.83ZM154.541 114.615C152.603 114.613 150.709 115.185 149.096 116.26C147.484 117.335 146.227 118.864 145.484 120.654C144.741 122.443 144.545 124.413 144.922 126.314C145.299 128.215 146.231 129.961 147.6 131.332C148.969 132.703 150.715 133.637 152.615 134.016C154.515 134.395 156.485 134.201 158.276 133.46C160.066 132.719 161.597 131.464 162.673 129.853C163.75 128.242 164.325 126.348 164.325 124.41C164.324 121.814 163.293 119.325 161.459 117.489C159.625 115.653 157.137 114.619 154.541 114.615Z" fill="#ED1B24"/>
<path d="M73.2825 139.83C70.2321 139.833 67.2493 138.931 64.7115 137.239C62.1737 135.546 60.195 133.139 59.0256 130.321C57.8562 127.504 57.5487 124.403 58.1419 121.411C58.7352 118.419 60.2027 115.67 62.3586 113.512C64.5145 111.354 67.2621 109.884 70.2537 109.287C73.2453 108.691 76.3465 108.996 79.165 110.162C81.9835 111.329 84.3927 113.305 86.0877 115.842C87.7827 118.378 88.6875 121.36 88.6875 124.41C88.6845 128.496 87.061 132.414 84.1731 135.305C81.2852 138.196 77.3686 139.823 73.2825 139.83ZM73.2825 114.615C71.3446 114.612 69.4493 115.184 67.8366 116.258C66.2238 117.333 64.9661 118.862 64.2224 120.651C63.4787 122.441 63.2826 124.411 63.6589 126.312C64.0351 128.213 64.9668 129.959 66.3361 131.331C67.7053 132.702 69.4506 133.637 71.351 134.016C73.2515 134.395 75.2217 134.202 77.0124 133.461C78.8031 132.72 80.3337 131.464 81.4107 129.853C82.4876 128.242 83.0625 126.348 83.0625 124.41C83.0605 121.815 82.03 119.327 80.1967 117.491C78.3635 115.655 75.8771 114.621 73.2825 114.615Z" fill="#ED1B24"/>
<path d="M174.829 127.222H167.137C166.392 127.222 165.676 126.926 165.149 126.399C164.621 125.871 164.325 125.156 164.325 124.41C164.325 123.664 164.621 122.949 165.149 122.421C165.676 121.894 166.392 121.597 167.137 121.597H174.034V106.684C174.032 104.667 173.516 102.685 172.534 100.924L157.309 73.6274C157.179 73.3944 156.989 73.2004 156.759 73.0653C156.529 72.9301 156.267 72.8588 156 72.8586H135.251V121.609H141.949C142.695 121.609 143.41 121.905 143.937 122.432C144.465 122.96 144.761 123.675 144.761 124.421C144.761 125.167 144.465 125.882 143.937 126.41C143.41 126.937 142.695 127.234 141.949 127.234H132.439C131.693 127.234 130.977 126.937 130.45 126.41C129.923 125.882 129.626 125.167 129.626 124.421V70.0461C129.626 69.3002 129.923 68.5848 130.45 68.0574C130.977 67.53 131.693 67.2336 132.439 67.2336H156C157.269 67.233 158.515 67.5712 159.609 68.2134C160.704 68.8555 161.607 69.7782 162.225 70.8861L177.446 98.1861C178.893 100.785 179.654 103.709 179.655 106.684V122.396C179.653 123.676 179.144 124.902 178.239 125.807C177.335 126.711 176.108 127.22 174.829 127.222Z" fill="#ED1B24"/>
<path d="M60.6863 127.223H33.72C32.9741 127.223 32.2587 126.926 31.7313 126.399C31.2038 125.871 30.9075 125.156 30.9075 124.41V102.78C30.9075 102.034 31.2038 101.319 31.7313 100.791C32.2587 100.264 32.9741 99.9675 33.72 99.9675C34.4659 99.9675 35.1813 100.264 35.7087 100.791C36.2362 101.319 36.5325 102.034 36.5325 102.78V121.598H60.6863C61.4322 121.598 62.1475 121.894 62.675 122.421C63.2024 122.949 63.4988 123.664 63.4988 124.41C63.4988 125.156 63.2024 125.871 62.675 126.399C62.1475 126.926 61.4322 127.223 60.6863 127.223Z" fill="#ED1B24"/>
<path d="M33.72 92.8013C32.9741 92.8013 32.2587 92.5049 31.7313 91.9775C31.2038 91.4501 30.9075 90.7347 30.9075 89.9888V71.1038C30.9075 70.3578 31.2038 69.6425 31.7313 69.115C32.2587 68.5876 32.9741 68.2913 33.72 68.2913C34.4659 68.2913 35.1813 68.5876 35.7087 69.115C36.2362 69.6425 36.5325 70.3578 36.5325 71.1038V90C36.5295 90.744 36.2319 91.4565 35.7048 91.9815C35.1777 92.5065 34.464 92.8013 33.72 92.8013Z" fill="#ED1B24"/>
<path d="M132.439 127.223H85.875C85.1291 127.223 84.4137 126.926 83.8863 126.399C83.3588 125.871 83.0625 125.156 83.0625 124.41C83.0625 123.664 83.3588 122.949 83.8863 122.421C84.4137 121.894 85.1291 121.598 85.875 121.598H129.626V48.0188H36.5325V59.6025C36.5325 60.3485 36.2362 61.0638 35.7087 61.5913C35.1813 62.1187 34.4659 62.415 33.72 62.415C32.9741 62.415 32.2587 62.1187 31.7313 61.5913C31.2038 61.0638 30.9075 60.3485 30.9075 59.6025V47.5013C30.9095 46.1467 31.4488 44.8481 32.407 43.8906C33.3652 42.9331 34.6641 42.3948 36.0188 42.3938H130.144C131.498 42.3958 132.796 42.9345 133.753 43.8919C134.711 44.8494 135.249 46.1473 135.251 47.5013V124.41C135.251 125.156 134.955 125.871 134.427 126.399C133.9 126.926 133.185 127.223 132.439 127.223Z" fill="#ED1B24"/>
<path d="M44.8387 105.593H9.14249C8.39657 105.593 7.68119 105.296 7.15375 104.769C6.6263 104.241 6.32999 103.526 6.32999 102.78C6.32999 102.034 6.6263 101.319 7.15375 100.791C7.68119 100.264 8.39657 99.9675 9.14249 99.9675H44.8387C45.5847 99.9675 46.3 100.264 46.8275 100.791C47.3549 101.319 47.6512 102.034 47.6512 102.78C47.6512 103.526 47.3549 104.241 46.8275 104.769C46.3 105.296 45.5847 105.593 44.8387 105.593Z" fill="#ED1B24"/>
<path d="M73.2825 92.8013H23.4713C22.7253 92.8013 22.01 92.505 21.4825 91.9775C20.9551 91.4501 20.6588 90.7347 20.6588 89.9888C20.6588 89.2428 20.9551 88.5275 21.4825 88C22.01 87.4726 22.7253 87.1763 23.4713 87.1763H73.2825C74.0284 87.1763 74.7438 87.4726 75.2712 88C75.7987 88.5275 76.095 89.2428 76.095 89.9888C76.095 90.7347 75.7987 91.4501 75.2712 91.9775C74.7438 92.505 74.0284 92.8013 73.2825 92.8013Z" fill="#ED1B24"/>
<path d="M21.9225 77.9512H2.47125C1.72533 77.9512 1.00996 77.6549 0.482515 77.1274C-0.0449314 76.6 -0.341248 75.8846 -0.341248 75.1387C-0.341248 74.3928 -0.0449314 73.6774 0.482515 73.1499C1.00996 72.6225 1.72533 72.3262 2.47125 72.3262H21.9225C22.6684 72.3262 23.3838 72.6225 23.9112 73.1499C24.4387 73.6774 24.735 74.3928 24.735 75.1387C24.735 75.8846 24.4387 76.6 23.9112 77.1274C23.3838 77.6549 22.6684 77.9512 21.9225 77.9512Z" fill="#ED1B24"/>
<path d="M53.1112 62.415H18.7762C18.0303 62.415 17.315 62.1187 16.7875 61.5913C16.2601 61.0638 15.9637 60.3485 15.9637 59.6025C15.9637 58.8566 16.2601 58.1412 16.7875 57.6138C17.315 57.0864 18.0303 56.79 18.7762 56.79H53.1112C53.8572 56.79 54.5725 57.0864 55.1 57.6138C55.6274 58.1412 55.9237 58.8566 55.9237 59.6025C55.9237 60.3485 55.6274 61.0638 55.1 61.5913C54.5725 62.1187 53.8572 62.415 53.1112 62.415Z" fill="#ED1B24"/>
</g>
<defs>
<clipPath id="clip0_113_94">
<rect width="180" height="180" fill="white"/>
</clipPath>
</defs>
</svg>
