<svg width="181" height="180" viewBox="0 0 181 180" fill="none" xmlns="http://www.w3.org/2000/svg">
<path d="M172.111 4.28598L166.016 0.00528611L160.132 4.13762L154.25 0.00528611L148.366 4.13762L142.483 0.00528611L136.6 4.13727L130.718 0.00528611L124.834 4.13762L118.952 0.00493371L113.07 4.13691L107.188 0.00458128L101.306 4.13691L95.4236 0.00528611L89.5405 4.13762L83.6581 0.00493371L77.5646 4.28563L69.2464 0L69.2738 18.6381L71.8795 31.8157V75.5703L55.05 58.7407C61.0998 47.3802 58.9102 32.6136 48.899 23.5634L45.364 27.5054C48.7309 30.5537 51.121 34.5955 52.2469 38.736C45.013 33.5094 32.6619 33.1792 27.9565 41.5838C21.0814 36.5641 25.1693 25.6292 30.7909 21.2868C34.4775 21.5233 38.1436 22.6151 41.4819 24.609L44.1972 20.0636C14.7902 2.94014 -15.1577 41.3276 8.59453 65.7149C18.1176 75.2588 32.7345 76.9123 44.0855 70.2391L71.8795 98.0335V114.2C66.8792 111.234 59.8078 113.06 56.9981 118.23L49.8333 130.64L19.7454 122.576C11.947 120.207 4.00231 128.141 6.37789 135.945C6.37753 135.945 16.0243 171.938 16.0243 171.938C17.8773 179.868 28.6737 182.802 34.2826 176.83L44.2416 166.873H85.0822C93.2288 167.15 98.8493 157.418 94.5341 150.501C94.5344 150.501 92.0359 146.173 92.0359 146.173L95.4151 148.548L101.3 144.415L107.183 148.548L113.066 144.415L118.948 148.548L124.832 144.415L130.714 148.548L136.596 144.416L142.477 148.548L148.36 144.416L154.243 148.548L160.126 144.415L166.008 148.548L172.102 144.267L180.42 148.553C180.42 145.705 180.42 131.831 180.42 129.281L177.775 116.019L177.785 31.7604L180.433 18.6438C180.433 16.2034 180.433 2.71107 180.433 0.00105721L172.111 4.28598ZM12.3942 28.2134C15.3904 25.2271 19.017 23.1782 22.8797 22.1065C17.6398 29.3401 17.3025 41.7064 25.7145 46.4167C20.7096 53.2773 9.77439 49.2236 5.44119 43.6009C5.79641 37.992 8.11067 32.4853 12.3942 28.2134ZM27.7338 68.9299C18.1529 68.6184 8.57374 60.9524 6.2549 51.5002C13.3901 56.7042 25.8569 57.0869 30.5478 48.6587C36.6152 52.8527 32.72 67.1834 27.7338 68.9299ZM35.6401 68.1134C40.8659 60.8784 41.1929 48.5308 32.7898 43.8254C37.7947 36.9655 48.7299 41.0192 53.0624 46.6412C52.7505 56.2185 45.0878 65.792 35.6401 68.1134ZM48.4268 67.0924C49.7575 65.9471 51.0047 64.6298 52.0859 63.2639L71.8795 83.0579V90.5455L48.4268 67.0924ZM89.9489 158.768C88.9329 160.528 87.1134 161.579 85.0818 161.579H49.5369L54.4618 156.655L50.7182 152.911L30.5379 173.087C27.6735 176.151 22.0847 174.657 21.1381 170.567L11.4917 134.576C10.2688 130.559 14.3599 126.467 18.3756 127.69L54.3681 137.337C58.4553 138.287 59.9583 143.87 56.8874 146.737L54.4664 149.159L58.2104 152.902L60.6314 150.481C66.7985 144.614 63.469 133.62 55.1275 132.059L61.5833 120.877C63.5581 117.174 69.3429 117.172 71.3175 120.877L89.9493 153.148C90.9645 154.908 90.9645 157.009 89.9489 158.768ZM120.605 82.6125C118.622 80.6291 115.82 79.8781 113.111 80.6045L104.178 82.998C95.314 74.3397 92.5127 68.1521 77.1741 60.9831V31.2973L75.213 21.3792H174.479L172.476 31.292V102.052C150.105 93.8973 144.17 103.397 121.604 93.8722C122.795 89.7861 124.036 86.059 120.605 82.6125ZM117.499 88.7363L111.536 110.991C110.947 112.891 108.856 113.43 107.413 112.096L91.1217 95.8045C89.7804 94.3593 90.3394 92.2642 92.2265 91.6817L114.481 85.7186C116.277 85.2872 117.944 86.6856 117.499 88.7363ZM175.124 139.869L171.678 138.093L166.007 142.077L160.124 137.945L154.241 142.077L148.358 137.945L142.476 142.077L136.594 137.945L130.712 142.077L124.83 137.945L118.946 142.077L113.064 137.945L107.181 142.077L101.298 137.945L95.414 142.077L89.594 137.988L88.0529 139.278L84.1638 132.542H148.649V127.247H81.1088L77.1741 120.432V66.8556C88.4624 72.5893 91.6595 77.6682 98.2597 84.5831C93.4733 86.1651 86.8928 86.0742 85.3697 92.0535C84.6438 94.7628 85.3944 97.5644 87.3777 99.5478L103.669 115.839C107.657 120.082 115.334 118 116.65 112.361C116.65 112.361 120.222 99.0304 120.222 99.0304C143.837 108.861 149.649 98.8264 172.477 107.713V116.53L174.614 127.246H164.535V132.541H175.124V139.869H175.124ZM175.138 16.0846H74.5684L74.5409 8.68368L77.9871 10.4591L83.6581 6.47549L89.5405 10.6075L95.4236 6.47514L101.306 10.6078L107.189 6.47549L113.07 10.6078L118.952 6.47549L124.835 10.6075L130.718 6.47514L136.601 10.6078L142.483 6.47514L148.367 10.6075L154.25 6.47514L160.133 10.6075L166.017 6.47514L171.69 10.4588L175.14 8.68262V16.0846H175.138Z" fill="#ED1B24"/>
</svg>
