<svg width="24" height="23" viewBox="0 0 24 23" fill="none" xmlns="http://www.w3.org/2000/svg">
<path d="M21.4246 7.12842V10.6926C21.4246 10.8817 21.3495 11.063 21.2158 11.1967C21.0821 11.3304 20.9008 11.4055 20.7118 11.4055C19.2226 11.409 17.7549 11.0509 16.4347 10.3621V13.9005C16.4347 15.6965 15.7212 17.419 14.4512 18.689C13.1812 19.959 11.4587 20.6725 9.66266 20.6725C7.8666 20.6725 6.14411 19.959 4.87411 18.689C3.6041 17.419 2.89063 15.6965 2.89063 13.9005C2.89062 10.6125 5.28846 7.70583 8.46864 7.13912C8.57123 7.12088 8.67658 7.12536 8.77725 7.15223C8.87793 7.17911 8.97149 7.22773 9.05134 7.29467C9.13119 7.36161 9.1954 7.44525 9.23944 7.53969C9.28348 7.63412 9.30628 7.73707 9.30623 7.84127V11.6452C9.30628 11.7801 9.26804 11.9123 9.19595 12.0263C9.12387 12.1403 9.0209 12.2316 8.89902 12.2894C8.61089 12.4261 8.3647 12.6375 8.18613 12.9017C8.00756 13.166 7.90317 13.4732 7.88382 13.7915C7.86448 14.1099 7.93091 14.4275 8.07617 14.7114C8.22143 14.9953 8.4402 15.235 8.70967 15.4055C8.97914 15.5761 9.28943 15.6712 9.60818 15.6809C9.92692 15.6907 10.2424 15.6147 10.5218 15.461C10.8012 15.3072 11.0342 15.0813 11.1966 14.8068C11.3589 14.5324 11.4446 14.2193 11.4448 13.9005V2.1385C11.4448 1.94945 11.5199 1.76813 11.6536 1.63445C11.7872 1.50076 11.9686 1.42566 12.1576 1.42566H15.7218C15.9109 1.42566 16.0922 1.50076 16.2259 1.63445C16.3596 1.76813 16.4347 1.94945 16.4347 2.1385C16.4359 3.27249 16.8869 4.3597 17.6887 5.16155C18.4906 5.9634 19.5778 6.4144 20.7118 6.41558C20.9008 6.41558 21.0821 6.49068 21.2158 6.62436C21.3495 6.75805 21.4246 6.93936 21.4246 7.12842Z" fill="black"/>
</svg>
