<svg width="24" height="23" viewBox="0 0 24 23" fill="none" xmlns="http://www.w3.org/2000/svg">
<mask id="mask0_372_378" style="mask-type:alpha" maskUnits="userSpaceOnUse" x="2" y="2" width="20" height="19">
<path d="M19.9579 2.13855H4.2753C3.89718 2.13855 3.53455 2.28876 3.26718 2.55612C2.99982 2.82349 2.84961 3.18612 2.84961 3.56424V19.2468C2.84961 19.625 2.99982 19.9876 3.26718 20.255C3.53455 20.5223 3.89718 20.6725 4.2753 20.6725H19.9579C20.336 20.6725 20.6986 20.5223 20.966 20.255C21.2334 19.9876 21.3836 19.625 21.3836 19.2468V3.56424C21.3836 3.18612 21.2334 2.82349 20.966 2.55612C20.6986 2.28876 20.336 2.13855 19.9579 2.13855ZM9.26522 15.6826C9.26522 15.8717 9.19011 16.053 9.05643 16.1867C8.92275 16.3204 8.74143 16.3955 8.55237 16.3955C8.36331 16.3955 8.182 16.3204 8.04831 16.1867C7.91463 16.053 7.83953 15.8717 7.83953 15.6826V9.97985C7.83953 9.79079 7.91463 9.60948 8.04831 9.47579C8.182 9.34211 8.36331 9.267 8.55237 9.267C8.74143 9.267 8.92275 9.34211 9.05643 9.47579C9.19011 9.60948 9.26522 9.79079 9.26522 9.97985V15.6826ZM8.55237 8.55416C8.34089 8.55416 8.13416 8.49145 7.95832 8.37395C7.78248 8.25646 7.64543 8.08946 7.5645 7.89408C7.48357 7.6987 7.46239 7.4837 7.50365 7.27629C7.54491 7.06887 7.64675 6.87834 7.79629 6.7288C7.94583 6.57926 8.13635 6.47743 8.34377 6.43617C8.55119 6.39491 8.76618 6.41608 8.96156 6.49701C9.15695 6.57795 9.32394 6.715 9.44144 6.89084C9.55893 7.06668 9.62164 7.27341 9.62164 7.48489C9.62164 7.76848 9.50899 8.04045 9.30846 8.24098C9.10793 8.4415 8.83596 8.55416 8.55237 8.55416ZM17.1065 15.6826C17.1065 15.8717 17.0314 16.053 16.8977 16.1867C16.764 16.3204 16.5827 16.3955 16.3937 16.3955C16.2046 16.3955 16.0233 16.3204 15.8896 16.1867C15.7559 16.053 15.6808 15.8717 15.6808 15.6826V12.4748C15.6808 12.0022 15.4931 11.5489 15.1589 11.2147C14.8246 10.8805 14.3714 10.6927 13.8987 10.6927C13.4261 10.6927 12.9728 10.8805 12.6386 11.2147C12.3044 11.5489 12.1166 12.0022 12.1166 12.4748V15.6826C12.1166 15.8717 12.0415 16.053 11.9078 16.1867C11.7741 16.3204 11.5928 16.3955 11.4038 16.3955C11.2147 16.3955 11.0334 16.3204 10.8997 16.1867C10.766 16.053 10.6909 15.8717 10.6909 15.6826V9.97985C10.6918 9.80524 10.7567 9.63703 10.8734 9.50713C10.9901 9.37722 11.1504 9.29466 11.3239 9.2751C11.4974 9.25554 11.6721 9.30034 11.8147 9.40101C11.9574 9.50168 12.0582 9.65121 12.0979 9.82124C12.5801 9.49411 13.1423 9.30451 13.7242 9.27281C14.306 9.24111 14.8855 9.3685 15.4005 9.6413C15.9154 9.9141 16.3463 10.322 16.6468 10.8212C16.9474 11.3204 17.1063 11.8921 17.1065 12.4748V15.6826Z" fill="black"/>
</mask>
<g mask="url(#mask0_372_378)">
<circle cx="12.1166" cy="11.4055" r="9.26699" fill="black"/>
</g>
</svg>
