<svg width="24" height="23" viewBox="0 0 24 23" fill="none" xmlns="http://www.w3.org/2000/svg">
<path d="M21.1126 6.19461C21.0287 5.86612 20.8678 5.5623 20.6433 5.30822C20.4188 5.05413 20.1371 4.85707 19.8215 4.73328C16.767 3.55352 11.9054 3.56421 11.638 3.56421C11.3707 3.56421 6.50912 3.55352 3.45457 4.73328C3.13893 4.85707 2.85724 5.05413 2.63275 5.30822C2.40825 5.5623 2.24739 5.86612 2.16343 6.19461C1.93265 7.08389 1.6582 8.70917 1.6582 11.4055C1.6582 14.1018 1.93265 15.7271 2.16343 16.6164C2.24727 16.9451 2.40807 17.2491 2.63257 17.5033C2.85707 17.7576 3.13883 17.9548 3.45457 18.0786C6.3808 19.2076 10.9608 19.2468 11.5792 19.2468H11.6968C12.3152 19.2468 16.8979 19.2076 19.8215 18.0786C20.1373 17.9548 20.419 17.7576 20.6435 17.5033C20.868 17.2491 21.0288 16.9451 21.1126 16.6164C21.3434 15.7254 21.6179 14.1018 21.6179 11.4055C21.6179 8.70917 21.3434 7.08389 21.1126 6.19461ZM14.542 11.9865L10.9778 14.4814C10.8711 14.5561 10.7461 14.6002 10.6162 14.6089C10.4863 14.6175 10.3565 14.5905 10.241 14.5306C10.1254 14.4707 10.0284 14.3804 9.96048 14.2693C9.89261 14.1582 9.85645 14.0306 9.85592 13.9005V8.91055C9.85596 8.78015 9.89177 8.65225 9.95945 8.54079C10.0271 8.42932 10.1241 8.33856 10.2398 8.27837C10.3555 8.21818 10.4854 8.19089 10.6156 8.19944C10.7457 8.208 10.871 8.25209 10.9778 8.32691L14.542 10.8219C14.6357 10.8876 14.7123 10.975 14.7651 11.0766C14.818 11.1782 14.8456 11.291 14.8456 11.4055C14.8456 11.52 14.818 11.6329 14.7651 11.7344C14.7123 11.836 14.6357 11.9234 14.542 11.9892V11.9865Z" fill="black"/>
</svg>
